<svg width="334" height="332" viewBox="0 0 334 332" fill="none" xmlns="http://www.w3.org/2000/svg">
<rect width="334" height="332" fill="#F5F5F5"/>
<path d="M328.63 149.696L210.86 149.696C208.188 149.696 206.849 146.466 208.738 144.576L292.228 61.0177C293.457 59.788 295.478 59.8623 296.594 61.1947C323.734 93.5874 329.046 125.3 331.604 146.358C331.821 148.14 330.425 149.696 328.63 149.696Z" fill="#FC970B"/>
<path d="M296.612 259.881L210.188 174.376C208.282 172.491 209.617 169.244 212.298 169.244H330.466C332.136 169.244 333.488 170.615 333.434 172.284C332.114 212.961 313.775 242.859 301.049 259.597C299.966 261.022 297.885 261.141 296.612 259.881Z" fill="#FC970B"/>
<path d="M275.804 43.9516L193.127 127.088C191.24 128.986 188 127.65 188 124.973V3.10717C188 1.31502 189.57 -0.0785106 191.346 0.161777C234.758 6.0353 262.095 27.4148 275.706 39.653C276.971 40.7901 277.004 42.7458 275.804 43.9516Z" fill="#FC970B"/>
<path d="M162.782 0.09163C164.63 -0.381618 166.407 1.03947 166.407 2.94683V158.498C166.407 164.052 168.608 169.381 172.527 173.316L279.35 280.585C280.532 281.772 280.533 283.681 279.294 284.809C262.539 300.056 217.985 331.744 166.8 331.744C103.5 331.744 -2.32435e-05 278.741 0 163.363C1.65758e-05 81.0824 60.9911 35.2251 82.7366 22.7688C84.5177 21.7486 85.9087 23.5923 84.6384 25.2047C69.8252 44.0083 47.7533 82.1185 50.7598 126.892C50.9032 129.028 50.2242 131.139 49.1496 132.991C45.8152 138.737 41.6395 150.465 42.6521 167.171C44.1753 192.303 47.2219 230.001 75.0219 252.848C102.822 275.695 136.279 256.586 144.332 239.244C149.282 228.582 152.329 207.915 144.332 175.548C136.334 143.181 121.101 121.476 108.153 116.907C101.716 114.635 96.5135 113.618 92.9492 113.235C90.53 112.975 88.4138 110.946 88.5792 108.518C90.8766 74.8154 107.996 14.1239 162.782 0.09163Z" fill="#FC970B"/>
<path d="M81.9482 131.09C81.9482 131.09 78.0639 137.628 86.0187 144.695C92.1878 150.177 97.9085 153.136 106.362 169.264C114.817 185.391 114.707 195.962 115.773 204.151C116.848 212.341 120.715 214.252 124.845 214.244C128.974 214.235 132.3 208.158 131.978 202.869C131.657 197.579 132.215 183.522 122.043 161.351C113.403 142.515 102.148 135.491 96.6222 131.098C92.6617 127.947 84.9524 126.689 81.9482 131.098V131.09Z" fill="#FC970B"/>
</svg>
