<svg xmlns="http://www.w3.org/2000/svg" viewBox="0 0 200 200">
  <defs>
    <linearGradient id="chapGrad" x1="0%" y1="0%" x2="100%" y2="100%">
      <stop offset="0%" style="stop-color:#F25942;stop-opacity:1" />
      <stop offset="100%" style="stop-color:#D94532;stop-opacity:1" />
    </linearGradient>
  </defs>
  <!-- Background circle -->
  <circle cx="100" cy="100" r="80" fill="#e5e7eb" opacity="0.5"/>
  <!-- Chapter list container -->
  <rect x="35" y="35" width="130" height="130" rx="8" fill="white" stroke="#e5e7eb" stroke-width="2"/>
  <!-- Chapter 1 (Orange/Active) -->
  <rect x="45" y="50" width="110" height="28" rx="4" fill="#F25942" opacity="0.2"/>
  <circle cx="58" cy="64" r="8" fill="#F25942"/>
  <text x="58" y="68" font-family="Arial, sans-serif" font-size="10" font-weight="bold" fill="white" text-anchor="middle">1</text>
  <rect x="72" y="58" width="70" height="8" rx="2" fill="#F25942"/>
  <rect x="72" y="68" width="40" height="4" rx="1" fill="#FF8573"/>
  <!-- Chapter 2 (Dark Gray) -->
  <rect x="45" y="86" width="110" height="28" rx="4" fill="#343a40" opacity="0.1"/>
  <circle cx="58" cy="100" r="8" fill="#343a40"/>
  <text x="58" y="104" font-family="Arial, sans-serif" font-size="10" font-weight="bold" fill="white" text-anchor="middle">2</text>
  <rect x="72" y="94" width="60" height="8" rx="2" fill="#343a40"/>
  <rect x="72" y="104" width="50" height="4" rx="1" fill="#6c757d"/>
  <!-- Chapter 3 (Light Gray) -->
  <rect x="45" y="122" width="110" height="28" rx="4" fill="#6c757d" opacity="0.1"/>
  <circle cx="58" cy="136" r="8" fill="#6c757d"/>
  <text x="58" y="140" font-family="Arial, sans-serif" font-size="10" font-weight="bold" fill="white" text-anchor="middle">3</text>
  <rect x="72" y="130" width="55" height="8" rx="2" fill="#6c757d"/>
  <rect x="72" y="140" width="35" height="4" rx="1" fill="#adb5bd"/>
  <!-- Drag indicator -->
  <g transform="translate(140, 55)">
    <rect x="0" y="0" width="3" height="3" rx="1" fill="#adb5bd"/>
    <rect x="6" y="0" width="3" height="3" rx="1" fill="#adb5bd"/>
    <rect x="0" y="6" width="3" height="3" rx="1" fill="#adb5bd"/>
    <rect x="6" y="6" width="3" height="3" rx="1" fill="#adb5bd"/>
  </g>
</svg>
